<svg fill="#fff" width="30" xmlns="http://www.w3.org/2000/svg" viewBox="0 0 554.748 554.748"><path d="M548.873 164.412c4.896 6.12 6.73 13.464 5.508 22.032l-23.256 133.417c-.816 6.938-3.979 12.648-9.486 17.136-5.508 4.488-11.729 6.732-18.666 6.732H163.925l-6.732 37.944H480.33c7.752 0 14.48 2.754 20.195 8.262 5.713 5.508 8.566 12.342 8.566 20.502s-2.854 14.994-8.566 20.502c-5.715 5.508-12.443 8.262-20.195 8.262H122.921c-8.568 0-15.912-3.468-22.032-10.401-5.712-6.938-7.956-14.895-6.732-23.868l15.3-83.232L86.201 87.914 20.105 67.106c-7.752-2.448-13.362-7.141-16.83-14.076-3.468-6.937-4.182-14.28-2.142-22.032 2.448-7.752 7.242-13.362 14.382-16.83s14.382-4.182 21.726-2.142l84.456 26.928c5.304 1.632 9.69 4.692 13.158 9.18 3.468 4.488 5.61 9.589 6.426 15.301l4.896 46.512 383.112 42.84c8.568 1.221 15.096 5.097 19.584 11.625zM166.374 455.113c12.24 0 22.644 4.284 31.212 12.854 8.568 8.565 12.852 18.972 12.852 31.212 0 12.237-4.284 22.746-12.852 31.518-8.568 8.772-18.972 13.158-31.212 13.158s-22.644-4.386-31.212-13.158c-8.568-8.771-12.852-19.278-12.852-31.518s4.284-22.646 12.852-31.212c8.567-8.57 18.971-12.854 31.212-12.854zm261.323 0c12.238 0 22.645 4.284 31.213 12.854 8.564 8.565 12.852 18.972 12.852 31.212 0 12.237-4.285 22.746-12.852 31.518-8.568 8.772-18.975 13.158-31.213 13.158-12.24 0-22.646-4.386-31.211-13.158-8.568-8.771-12.855-19.278-12.855-31.518s4.285-22.646 12.855-31.212c8.567-8.57 18.971-12.854 31.211-12.854z"/></svg>